<svg 
 xmlns="http://www.w3.org/2000/svg"
 xmlns:xlink="http://www.w3.org/1999/xlink"
 width="116px" height="102px">
<path fill-rule="evenodd"  stroke="rgb(0, 0, 0)" stroke-width="0px" stroke-linecap="butt" stroke-linejoin="miter" fill="rgb(255, 255, 255)"
 d="M0.1000,26.1000 C1.502,24.319 2.169,21.652 2.1000,18.1000 C4.375,16.476 6.044,14.131 7.1000,11.1000 C12.382,7.225 17.931,3.740 23.1000,1.1000 C30.094,0.253 35.806,0.262 40.750,1.500 C43.758,2.253 49.160,4.763 54.250,8.750 C56.148,10.236 58.081,12.012 59.1000,13.1000 C60.610,14.632 61.652,15.810 62.500,16.750 C64.868,19.375 68.614,23.679 68.1000,23.1000 C69.568,24.471 71.238,25.906 71.1000,27.1000 C72.521,29.431 72.645,31.138 72.250,32.1000 C71.857,34.850 70.716,37.682 67.1000,39.250 C65.971,40.422 63.478,40.610 60.1000,39.1000 C57.567,39.155 55.529,36.862 54.250,35.500 C51.179,32.231 48.184,30.159 44.1000,26.1000 C44.496,26.500 43.003,25.003 41.1000,23.1000 C40.995,22.995 39.507,21.499 38.1000,20.1000 C37.869,19.887 36.575,18.837 35.1000,17.1000 C35.105,16.696 34.580,15.353 33.500,15.250 C32.923,15.195 32.251,15.499 31.1000,15.1000 C31.308,17.383 33.950,20.036 34.1000,20.1000 C37.151,22.975 39.102,23.762 38.1000,24.1000 C38.935,25.788 38.086,26.175 36.1000,26.1000 C36.652,27.264 34.718,29.282 34.500,29.500 C29.462,34.540 16.265,49.397 12.1000,51.500 C12.762,51.653 12.122,52.069 11.750,52.750 C11.110,53.921 11.580,55.030 11.500,56.750 C11.475,57.297 11.333,59.147 10.750,59.250 C10.229,59.342 9.662,57.987 8.1000,56.750 C7.400,53.759 5.472,52.922 3.750,49.1000 C2.907,48.570 1.708,45.324 0.1000,41.1000 C0.349,38.945 0.099,35.840 0.250,32.750 C0.330,31.107 0.614,29.065 0.1000,26.1000 ZM41.1000,26.1000 C44.667,29.667 47.333,32.333 49.1000,34.1000 C51.152,35.571 52.000,36.248 51.1000,36.1000 C51.1000,38.027 50.421,38.788 49.1000,38.1000 C46.905,40.560 43.035,46.263 37.1000,50.1000 C34.643,54.159 26.596,60.086 24.1000,62.1000 C24.840,63.293 24.207,64.448 22.1000,64.1000 C20.653,66.073 17.893,64.390 16.1000,63.750 C15.584,62.737 14.406,61.264 13.1000,59.500 C13.717,58.269 13.804,56.399 14.1000,53.1000 C16.365,51.263 19.152,48.765 19.500,48.500 C25.628,43.833 33.221,34.438 41.1000,26.1000 ZM60.1000,8.1000 C61.726,7.987 62.559,7.067 63.500,6.250 C65.649,4.384 69.446,2.739 74.1000,1.1000 C80.174,1.311 85.213,1.467 87.1000,1.1000 C92.964,2.949 97.566,4.934 101.500,7.750 C106.725,11.490 110.900,16.676 113.250,22.750 C116.227,30.442 116.281,39.362 112.1000,46.1000 C111.193,51.206 107.907,55.050 106.750,56.250 C102.611,60.543 92.925,72.203 84.250,79.750 C76.486,86.504 66.255,94.557 63.1000,98.500 C63.853,98.756 63.046,100.010 61.1000,100.750 C61.057,101.417 59.812,101.889 58.250,101.1000 C56.872,102.098 54.056,101.964 52.250,99.1000 C49.856,97.396 50.536,93.309 51.1000,90.1000 C52.725,89.857 54.000,88.911 54.250,88.750 C60.678,84.607 74.921,65.979 78.1000,63.1000 C79.170,63.918 79.855,63.605 79.1000,62.1000 C80.136,62.429 79.716,61.923 78.1000,60.1000 C78.535,60.400 78.255,59.988 77.1000,59.1000 C77.337,60.032 76.861,62.008 75.1000,62.1000 C75.335,63.765 74.494,64.220 73.1000,64.500 C68.818,67.438 55.115,82.972 51.1000,86.250 C51.587,86.684 50.755,87.400 49.1000,87.1000 C48.411,89.263 47.212,89.874 45.1000,89.1000 C44.606,90.145 43.168,89.788 41.1000,88.1000 C39.789,87.508 39.322,84.970 39.250,83.750 C39.210,83.081 39.426,81.512 39.1000,79.1000 C40.357,79.060 40.774,78.242 41.250,77.500 C43.165,74.512 46.013,72.501 48.250,70.500 C49.550,69.337 50.684,67.920 51.1000,66.500 C56.072,62.107 60.894,57.488 65.1000,52.1000 C66.432,52.778 66.784,52.432 66.1000,51.1000 C67.380,51.239 67.240,50.473 66.1000,49.1000 C66.764,49.536 66.104,49.105 65.1000,48.1000 C65.532,48.528 65.366,48.054 64.1000,47.1000 C64.192,47.882 63.365,49.384 62.1000,49.1000 C62.727,50.461 60.046,53.047 58.250,54.1000 C51.647,62.180 41.413,70.191 38.1000,73.1000 C38.823,74.279 38.063,75.381 36.1000,76.000 C35.645,76.790 34.302,76.765 33.500,76.750 C30.891,76.701 28.924,76.722 27.1000,76.000 C26.383,74.737 26.014,72.453 25.1000,70.1000 C25.987,69.600 26.345,68.345 26.1000,66.1000 C27.995,64.955 29.971,62.764 30.250,62.500 C32.460,60.408 49.682,44.109 51.735,41.474 C51.983,41.156 52.827,40.027 53.1000,39.1000 C54.914,39.979 55.589,40.632 55.1000,40.1000 C57.069,41.958 58.344,42.702 58.1000,42.1000 C59.742,43.336 61.993,43.726 64.500,43.250 C68.214,42.544 71.156,40.936 72.1000,38.500 C76.852,33.412 75.086,27.437 73.1000,24.1000 C73.465,23.800 71.577,21.154 68.1000,18.1000 C64.931,15.599 61.183,14.434 60.750,11.250 C60.646,10.487 60.748,9.731 60.1000,8.1000 Z"/>
</svg>